<?xml version="1.0" standalone="no"?><!DOCTYPE svg PUBLIC "-//W3C//DTD SVG 1.1//EN" "http://www.w3.org/Graphics/SVG/1.1/DTD/svg11.dtd"><svg width="100%" height="100%" viewBox="0 0 21 23" version="1.1" xmlns="http://www.w3.org/2000/svg" xmlns:xlink="http://www.w3.org/1999/xlink" xml:space="preserve" style="fill-rule:evenodd;clip-rule:evenodd;stroke-linejoin:round;stroke-miterlimit:1.41421;"><path d="M10.427,0.791c-0.468,0 -0.93,0.124 -1.336,0.357l-6.954,3.996c-0.83,0.477 -1.346,1.369 -1.346,2.326l0,7.969c0,0.958 0.516,1.849 1.346,2.326l6.954,3.996c0.406,0.234 0.868,0.357 1.336,0.357c0.469,0 0.931,-0.123 1.338,-0.357l6.953,-3.996c0.831,-0.477 1.346,-1.369 1.346,-2.326l0,-7.969c0,-0.957 -0.515,-1.849 -1.346,-2.326l-6.953,-3.996c-0.407,-0.233 -0.869,-0.357 -1.338,-0.357M10.427,22.91c-0.606,0 -1.205,-0.16 -1.731,-0.462l-6.953,-3.997c-1.075,-0.618 -1.743,-1.772 -1.743,-3.012l0,-7.969c0,-1.24 0.668,-2.394 1.743,-3.011l6.953,-3.997c0.526,-0.302 1.125,-0.462 1.731,-0.462c0.607,0 1.206,0.16 1.731,0.462l6.954,3.997c1.076,0.617 1.743,1.771 1.743,3.011l0,7.969c0,1.24 -0.667,2.394 -1.743,3.012l-6.954,3.997c-0.525,0.302 -1.124,0.462 -1.731,0.462" style="fill:#fff;fill-rule:nonzero;"/><path d="M10.391,7.105c-0.435,0.355 -1.093,0.945 -1.715,1.704c-1.093,1.336 -1.609,2.623 -1.536,3.828c0.016,0.25 0.056,0.944 0.464,1.626c0.479,0.8 1.471,1.698 2.824,1.698l0.029,0c1.175,0 2.29,-0.676 2.842,-1.68c0.11,-0.199 0.363,-0.768 0.36,-1.617c-0.011,-2.467 -2.193,-4.644 -3.268,-5.559M10.457,17.058l-0.04,-0.01c-1.82,-0.017 -3.147,-1.164 -3.783,-2.226c-0.549,-0.918 -0.602,-1.788 -0.622,-2.114c-0.209,-3.413 3.337,-6.246 4.049,-6.778l0.348,-0.261l0.341,0.269c1.21,0.955 4.025,3.52 4.039,6.708c0.005,1.073 -0.311,1.819 -0.5,2.163c-0.747,1.36 -2.252,2.249 -3.832,2.249" style="fill:#fff;fill-rule:nonzero;"/></svg>