<?xml version="1.0" standalone="no"?><!DOCTYPE svg PUBLIC "-//W3C//DTD SVG 1.1//EN" "http://www.w3.org/Graphics/SVG/1.1/DTD/svg11.dtd"><svg width="100%" height="100%" viewBox="0 0 131 31" version="1.1" xmlns="http://www.w3.org/2000/svg" xmlns:xlink="http://www.w3.org/1999/xlink" xml:space="preserve" style="fill-rule:evenodd;clip-rule:evenodd;stroke-linejoin:round;stroke-miterlimit:1.41421;"><path d="M13.903,1.055c-0.624,0 -1.24,0.165 -1.782,0.476l-9.272,5.328c-1.107,0.636 -1.794,1.825 -1.794,3.101l0,10.625c0,1.277 0.687,2.465 1.794,3.101l9.272,5.329c0.542,0.311 1.158,0.476 1.782,0.476c0.625,0 1.241,-0.165 1.783,-0.476l9.271,-5.329c1.108,-0.636 1.795,-1.824 1.795,-3.101l0,-10.625c0,-1.276 -0.687,-2.465 -1.795,-3.101l-9.271,-5.328c-0.542,-0.311 -1.158,-0.476 -1.783,-0.476M13.903,30.546c-0.808,0 -1.607,-0.213 -2.308,-0.616l-9.271,-5.329c-1.434,-0.824 -2.324,-2.363 -2.324,-4.016l0,-10.625c0,-1.653 0.89,-3.192 2.324,-4.015l9.271,-5.329c0.701,-0.403 1.5,-0.616 2.308,-0.616c0.809,0 1.607,0.213 2.308,0.616l9.272,5.329c1.434,0.823 2.324,2.362 2.324,4.015l0,10.625c0,1.653 -0.89,3.192 -2.324,4.016l-9.272,5.329c-0.701,0.403 -1.499,0.616 -2.308,0.616" style="fill:#fff;fill-rule:nonzero;"/><path d="M13.855,9.473c-0.58,0.474 -1.458,1.26 -2.287,2.272c-1.457,1.781 -2.146,3.498 -2.048,5.104c0.021,0.334 0.075,1.259 0.619,2.168c0.638,1.067 1.961,2.264 3.765,2.264l0.039,0c1.566,0 3.053,-0.901 3.789,-2.24c0.146,-0.265 0.484,-1.023 0.48,-2.155c-0.015,-3.29 -2.924,-6.192 -4.357,-7.413M13.943,22.744l-0.053,-0.014c-2.427,-0.022 -4.197,-1.551 -5.044,-2.968c-0.733,-1.224 -0.803,-2.383 -0.83,-2.818c-0.279,-4.551 4.449,-8.328 5.399,-9.038l0.464,-0.348l0.454,0.359c1.614,1.273 5.367,4.693 5.386,8.944c0.006,1.431 -0.415,2.426 -0.667,2.884c-0.996,1.814 -3.002,2.999 -5.109,2.999" style="fill:#fff;fill-rule:nonzero;"/><path d="M36.462,19.701l2.809,0c0.588,0 1.13,-0.096 1.611,-0.284c0.462,-0.182 0.864,-0.452 1.196,-0.803c0.334,-0.354 0.6,-0.803 0.791,-1.333c0.196,-0.544 0.295,-1.184 0.295,-1.903c0,-0.72 -0.099,-1.36 -0.295,-1.904c-0.191,-0.53 -0.457,-0.978 -0.791,-1.333c-0.336,-0.355 -0.727,-0.618 -1.198,-0.804c-0.478,-0.187 -1.02,-0.282 -1.609,-0.282l-2.809,0l0,8.646ZM39.271,21.295l-3.71,0c-0.399,0 -0.723,-0.324 -0.723,-0.723l0,-10.388c0,-0.4 0.324,-0.723 0.723,-0.723l3.71,0c0.802,0 1.548,0.134 2.217,0.399c0.686,0.271 1.284,0.672 1.776,1.191c0.49,0.515 0.874,1.149 1.142,1.883c0.263,0.72 0.396,1.542 0.396,2.444c0,0.901 -0.133,1.724 -0.396,2.444c-0.268,0.733 -0.652,1.366 -1.142,1.882c-0.493,0.52 -1.091,0.921 -1.776,1.191c-0.67,0.265 -1.416,0.4 -2.217,0.4" style="fill:#fff;fill-rule:nonzero;"/><path d="M52.999,21.295l-6.071,0c-0.398,0 -0.722,-0.324 -0.722,-0.723l0,-10.389c0,-0.399 0.324,-0.722 0.722,-0.722l6.071,0c0.399,0 0.722,0.323 0.722,0.722l0,0.164c0,0.399 -0.323,0.722 -0.722,0.722l-5.169,0l0,3.423l4.278,0c0.4,0 0.723,0.324 0.723,0.722l0,0.164c0,0.399 -0.323,0.722 -0.723,0.722l-4.278,0l0,3.586l5.184,0c0.203,0 0.397,0.086 0.534,0.236c0.137,0.15 0.204,0.351 0.186,0.553l-0.016,0.163c-0.034,0.372 -0.346,0.657 -0.719,0.657" style="fill:#fff;fill-rule:nonzero;"/><path d="M61.904,21.295l-6.071,0c-0.399,0 -0.722,-0.324 -0.722,-0.723l0,-10.389c0,-0.399 0.323,-0.722 0.722,-0.722l6.071,0c0.399,0 0.722,0.323 0.722,0.722l0,0.164c0,0.399 -0.323,0.722 -0.722,0.722l-5.17,0l0,3.423l4.279,0c0.399,0 0.722,0.324 0.722,0.722l0,0.164c0,0.399 -0.323,0.722 -0.722,0.722l-4.279,0l0,3.586l5.184,0c0.204,0 0.397,0.086 0.534,0.235c0.137,0.15 0.204,0.351 0.186,0.553l-0.015,0.163c-0.034,0.373 -0.346,0.658 -0.719,0.658" style="fill:#fff;fill-rule:nonzero;"/><path d="M65.935,15.248l1.445,0c0.425,0 0.808,-0.059 1.139,-0.177c0.321,-0.113 0.595,-0.269 0.813,-0.461c0.216,-0.191 0.377,-0.405 0.494,-0.657c0.115,-0.248 0.171,-0.51 0.171,-0.801c0,-0.711 -0.191,-1.219 -0.583,-1.555c-0.419,-0.36 -1.104,-0.542 -2.034,-0.542l-1.445,0l0,4.193ZM65.213,21.294l-0.178,0c-0.399,0 -0.723,-0.323 -0.723,-0.722l0,-10.388c0,-0.399 0.324,-0.723 0.723,-0.723l2.345,0c1.297,0 2.327,0.301 3.062,0.894c0.782,0.632 1.178,1.573 1.178,2.797c0,0.535 -0.109,1.039 -0.325,1.498c-0.215,0.458 -0.523,0.857 -0.913,1.185c-0.375,0.316 -0.826,0.568 -1.341,0.745c-0.507,0.174 -1.065,0.262 -1.661,0.262l-1.445,0l0,3.73c0,0.399 -0.323,0.722 -0.722,0.722" style="fill:#fff;fill-rule:nonzero;"/><path d="M75.275,21.414c-0.403,0 -0.773,-0.037 -1.1,-0.111c-0.335,-0.075 -0.649,-0.185 -0.931,-0.329c-0.274,-0.138 -0.537,-0.312 -0.776,-0.516c-0.223,-0.193 -0.438,-0.412 -0.641,-0.654c-0.241,-0.288 -0.222,-0.713 0.045,-0.977c0.075,-0.075 0.117,-0.11 0.151,-0.134c0.062,-0.053 0.231,-0.15 0.477,-0.15c0.359,0 0.585,0.244 0.66,0.324c0.054,0.059 0.123,0.128 0.209,0.213c0.083,0.08 0.182,0.166 0.298,0.257c0.098,0.077 0.225,0.153 0.374,0.226c0.151,0.073 0.331,0.136 0.532,0.184c0.198,0.048 0.434,0.072 0.702,0.072c0.384,0 0.722,-0.059 1.005,-0.175c0.284,-0.116 0.523,-0.271 0.714,-0.462c0.19,-0.191 0.332,-0.408 0.432,-0.663c0.102,-0.26 0.154,-0.543 0.154,-0.841c0,-0.227 -0.031,-0.416 -0.094,-0.563c-0.064,-0.149 -0.149,-0.277 -0.253,-0.379c-0.125,-0.124 -0.267,-0.226 -0.435,-0.314c-0.206,-0.109 -0.424,-0.205 -0.65,-0.287c-0.251,-0.092 -0.505,-0.177 -0.763,-0.255c-0.285,-0.085 -0.569,-0.181 -0.847,-0.287c-0.295,-0.11 -0.574,-0.239 -0.832,-0.381c-0.292,-0.16 -0.555,-0.359 -0.778,-0.593c-0.238,-0.248 -0.426,-0.542 -0.56,-0.875c-0.136,-0.333 -0.205,-0.723 -0.205,-1.157c0,-0.423 0.081,-0.836 0.239,-1.226c0.161,-0.394 0.398,-0.746 0.704,-1.048c0.308,-0.3 0.684,-0.539 1.119,-0.712c0.434,-0.172 0.927,-0.259 1.466,-0.259c0.597,0 1.142,0.101 1.619,0.302c0.479,0.201 0.929,0.519 1.337,0.945c0.234,0.245 0.267,0.62 0.078,0.902l-0.03,0.044c-0.014,0.021 -0.029,0.042 -0.045,0.061c-0.162,0.194 -0.394,0.304 -0.637,0.304c-0.386,0 -0.642,-0.282 -0.739,-0.388c-0.031,-0.035 -0.104,-0.105 -0.271,-0.219c-0.127,-0.085 -0.302,-0.169 -0.521,-0.249c-0.196,-0.072 -0.462,-0.108 -0.791,-0.108c-0.331,0 -0.623,0.049 -0.866,0.145c-0.241,0.097 -0.433,0.217 -0.588,0.368c-0.152,0.15 -0.265,0.316 -0.343,0.511c-0.083,0.203 -0.122,0.407 -0.122,0.627c0,0.27 0.045,0.484 0.135,0.637c0.106,0.183 0.24,0.331 0.412,0.455c0.199,0.144 0.433,0.267 0.695,0.364c0.32,0.119 0.643,0.232 0.971,0.341c0.345,0.114 0.687,0.235 1.023,0.362c0.388,0.147 0.74,0.339 1.047,0.57c0.331,0.25 0.604,0.563 0.808,0.93c0.217,0.389 0.326,0.86 0.326,1.402c0,0.513 -0.089,1.002 -0.265,1.453c-0.179,0.46 -0.442,0.868 -0.783,1.211c-0.341,0.344 -0.76,0.616 -1.246,0.812c-0.48,0.192 -1.025,0.29 -1.62,0.29" style="fill:#fff;fill-rule:nonzero;"/><path d="M85.115,10.936c-0.575,0 -1.105,0.099 -1.577,0.296c-0.471,0.197 -0.865,0.472 -1.204,0.843c-0.341,0.371 -0.613,0.835 -0.81,1.38c-0.201,0.557 -0.302,1.204 -0.302,1.923c0,0.718 0.101,1.364 0.302,1.917c0.196,0.542 0.468,1.004 0.808,1.374c0.341,0.368 0.735,0.643 1.205,0.839c0.955,0.397 2.23,0.39 3.175,-0.001c0.471,-0.195 0.864,-0.469 1.202,-0.837c0.338,-0.369 0.606,-0.829 0.797,-1.37c0.197,-0.556 0.296,-1.203 0.296,-1.922c0,-0.72 -0.099,-1.369 -0.296,-1.928c-0.192,-0.544 -0.461,-1.007 -0.798,-1.376c-0.338,-0.371 -0.73,-0.645 -1.202,-0.841c-0.475,-0.197 -1.012,-0.297 -1.596,-0.297M85.115,21.399c-0.801,0 -1.548,-0.143 -2.22,-0.424c-0.677,-0.282 -1.271,-0.696 -1.765,-1.229c-0.488,-0.529 -0.87,-1.172 -1.136,-1.912c-0.263,-0.728 -0.396,-1.555 -0.396,-2.456c0,-0.897 0.133,-1.721 0.395,-2.452c0.266,-0.742 0.648,-1.388 1.135,-1.918c0.493,-0.536 1.087,-0.953 1.766,-1.239c0.671,-0.283 1.419,-0.427 2.221,-0.427c0.803,0 1.553,0.142 2.228,0.422c0.684,0.285 1.28,0.701 1.772,1.236c0.488,0.53 0.87,1.176 1.136,1.919c0.262,0.732 0.395,1.559 0.395,2.459c0,0.9 -0.133,1.726 -0.396,2.456c-0.266,0.741 -0.649,1.384 -1.136,1.911c-0.494,0.534 -1.089,0.948 -1.771,1.231c-0.673,0.281 -1.423,0.423 -2.228,0.423" style="fill:#fff;fill-rule:nonzero;"/><path d="M96.498,21.428c-0.679,0 -1.305,-0.128 -1.86,-0.38c-0.553,-0.251 -1.031,-0.598 -1.422,-1.03c-0.388,-0.43 -0.689,-0.938 -0.894,-1.51c-0.2,-0.562 -0.302,-1.166 -0.302,-1.795l0,-6.53c0,-0.399 0.324,-0.722 0.723,-0.722l0.178,0c0.399,0 0.723,0.323 0.723,0.722l0,6.515c0,0.446 0.068,0.87 0.204,1.258c0.132,0.377 0.322,0.709 0.565,0.985c0.24,0.273 0.528,0.483 0.88,0.642c0.345,0.157 0.75,0.236 1.205,0.236c0.454,0 0.859,-0.079 1.203,-0.235c0.353,-0.16 0.641,-0.369 0.883,-0.641c0.242,-0.274 0.432,-0.603 0.564,-0.978c0.135,-0.384 0.203,-0.805 0.203,-1.252l0,-6.53c0,-0.399 0.324,-0.722 0.723,-0.722l0.178,0c0.399,0 0.723,0.323 0.723,0.722l0,6.53c0,0.629 -0.101,1.232 -0.301,1.794c-0.206,0.574 -0.507,1.081 -0.894,1.511c-0.392,0.432 -0.87,0.779 -1.421,1.03c-0.557,0.252 -1.183,0.38 -1.861,0.38" style="fill:#fff;fill-rule:nonzero;"/><path d="M104.938,14.685l1.369,0c0.438,0 0.832,-0.051 1.172,-0.152c0.319,-0.095 0.591,-0.229 0.807,-0.397c0.202,-0.157 0.353,-0.343 0.46,-0.566c0.11,-0.228 0.163,-0.486 0.163,-0.79c0,-0.804 -0.298,-1.11 -0.522,-1.271c-0.42,-0.301 -1.075,-0.454 -1.946,-0.454l-1.503,0l0,3.63ZM110.754,21.295c-0.002,0 -0.005,0 -0.009,0l-0.119,0c-0.116,0 -0.22,-0.015 -0.317,-0.047c-0.184,-0.047 -0.326,-0.185 -0.414,-0.283l-3.905,-4.679c0,0 -0.002,-0.002 -0.005,-0.006c-0.041,0 -0.093,-0.002 -0.152,-0.002l-0.895,0l0,4.294c0,0.399 -0.324,0.723 -0.723,0.723l-0.178,0c-0.399,0 -0.723,-0.324 -0.723,-0.723l0,-4.305l-1.789,-1.582l1.789,-0.005l0,-4.496c0,-0.4 0.324,-0.723 0.723,-0.723l2.404,0c1.234,0 2.217,0.258 2.921,0.768c0.777,0.562 1.171,1.42 1.171,2.551c0,0.529 -0.107,1.018 -0.317,1.454c-0.21,0.435 -0.509,0.811 -0.889,1.114c-0.365,0.291 -0.8,0.52 -1.293,0.68c-0.043,0.014 -0.086,0.027 -0.129,0.039l3.331,3.966c0.148,0.133 0.241,0.325 0.241,0.539c0,0.399 -0.323,0.723 -0.723,0.723" style="fill:#fff;fill-rule:nonzero;"/><path d="M116.83,21.414c-0.79,0 -1.532,-0.143 -2.207,-0.423c-0.682,-0.285 -1.28,-0.699 -1.779,-1.232c-0.494,-0.528 -0.883,-1.173 -1.156,-1.918c-0.268,-0.734 -0.405,-1.562 -0.405,-2.463c0,-0.873 0.137,-1.686 0.405,-2.417c0.273,-0.742 0.666,-1.389 1.168,-1.925c0.506,-0.541 1.12,-0.964 1.823,-1.256c0.696,-0.291 1.47,-0.438 2.299,-0.438c0.413,0 0.794,0.028 1.134,0.083c0.35,0.058 0.683,0.147 0.99,0.266c0.307,0.119 0.603,0.271 0.88,0.452c0.258,0.167 0.522,0.364 0.785,0.585c0.273,0.229 0.338,0.622 0.155,0.927c-0.016,0.026 -0.056,0.089 -0.075,0.112c-0.156,0.198 -0.387,0.311 -0.633,0.311c-0.324,0 -0.552,-0.193 -0.627,-0.256c-0.061,-0.053 -0.138,-0.114 -0.235,-0.186c-0.096,-0.072 -0.213,-0.15 -0.353,-0.235c-0.124,-0.074 -0.28,-0.147 -0.46,-0.213c-0.191,-0.07 -0.417,-0.131 -0.675,-0.18c-0.253,-0.048 -0.551,-0.072 -0.886,-0.072c-0.604,0 -1.163,0.103 -1.66,0.306c-0.495,0.203 -0.908,0.484 -1.261,0.859c-0.354,0.375 -0.637,0.84 -0.839,1.384c-0.207,0.555 -0.311,1.192 -0.311,1.893c0,0.717 0.104,1.362 0.308,1.917c0.201,0.545 0.479,1.009 0.826,1.381c0.343,0.368 0.754,0.652 1.221,0.846c0.475,0.197 1.002,0.297 1.568,0.297c0.38,0 0.716,-0.025 0.999,-0.077c0.279,-0.05 0.534,-0.122 0.761,-0.216c0.224,-0.093 0.433,-0.207 0.624,-0.342c0.21,-0.148 0.421,-0.319 0.631,-0.51c0.178,-0.183 0.398,-0.227 0.547,-0.227c0.202,0 0.392,0.075 0.541,0.213l0.055,0.048c0.151,0.134 0.239,0.323 0.245,0.524c0.005,0.201 -0.074,0.395 -0.218,0.536c-0.244,0.238 -0.509,0.46 -0.79,0.657c-0.291,0.204 -0.612,0.382 -0.955,0.527c-0.334,0.143 -0.71,0.257 -1.116,0.34c-0.404,0.081 -0.848,0.122 -1.324,0.122" style="fill:#fff;fill-rule:nonzero;"/><path d="M129.386,21.295l-6.071,0c-0.399,0 -0.722,-0.324 -0.722,-0.723l0,-10.389c0,-0.399 0.323,-0.722 0.722,-0.722l6.071,0c0.399,0 0.722,0.323 0.722,0.722l0,0.164c0,0.399 -0.323,0.722 -0.722,0.722l-5.17,0l0,3.423l4.279,0c0.399,0 0.723,0.324 0.723,0.722l0,0.164c0,0.399 -0.324,0.722 -0.723,0.722l-4.279,0l0,3.586l5.185,0c0.203,0 0.397,0.086 0.534,0.236c0.137,0.15 0.204,0.351 0.185,0.553l-0.014,0.163c-0.035,0.372 -0.347,0.657 -0.72,0.657" style="fill:#fff;fill-rule:nonzero;"/></svg>